<?xml version="1.0" encoding="utf-8"?>
<!-- Generator: Adobe Illustrator 16.0.3, SVG Export Plug-In . SVG Version: 6.00 Build 0)  -->
<!DOCTYPE svg PUBLIC "-//W3C//DTD SVG 1.1//EN" "http://www.w3.org/Graphics/SVG/1.1/DTD/svg11.dtd">
<svg version="1.1" xmlns="http://www.w3.org/2000/svg" xmlns:xlink="http://www.w3.org/1999/xlink" x="0px" y="0px" width="500px"
	 height="500px" viewBox="0 0 500 500" enable-background="new 0 0 500 500" xml:space="preserve">
<g id="Background" display="none">
	<radialGradient id="SVGID_1_" cx="250" cy="250" r="445.4925" gradientUnits="userSpaceOnUse">
		<stop  offset="0.0028" style="stop-color:#FFFFFF"/>
		<stop  offset="0.2557" style="stop-color:#FBFBFB"/>
		<stop  offset="0.5221" style="stop-color:#EEEEEE"/>
		<stop  offset="0.794" style="stop-color:#D9D9D9"/>
		<stop  offset="1" style="stop-color:#C4C4C4"/>
	</radialGradient>
	<rect display="inline" fill="url(#SVGID_1_)" width="500" height="500"/>
</g>
<g id="Objects">
	<g>
		<path fill="#2DCCD3" d="M199.404,246.772V199.58c0-6.188-5.016-11.203-11.203-11.203h-30.255c-6.188,0-11.203,5.016-11.203,11.203
			v54.813C161.325,253.898,179.445,251.239,199.404,246.772z"/>
		<path fill="#2DCCD3" d="M290.712,238.937v68.471h52.661v-94.576C328.236,221.756,310.401,230.625,290.712,238.937z"/>
	</g>
	<path fill="#2DCCD3" d="M189.539,282.078h9.865V269.11c-18.801,4.55-36.631,7.771-52.661,9.496v28.801h52.661v-12.624
		L189.539,282.078z"/>
	<path fill="#2DCCD3" d="M250.458,254.218c-10.908,3.707-21.742,7.054-32.368,10.021v17.84h10.781l-10.781,13.886v11.443h52.661
		v-60.49C264.132,249.428,257.365,251.869,250.458,254.218z"/>
	<path fill="#2DCCD3" d="M261.489,176.192l9.262-11.93v-2.96c0-5.766-4.674-10.439-10.438-10.439h-31.783
		c-5.766,0-10.439,4.673-10.439,10.439v80.898c12.493-3.306,25.453-7.213,38.524-11.656c4.835-1.644,9.543-3.313,14.137-5.001
		v-49.351H261.489z"/>
	<path fill="#2DCCD3" d="M290.712,115.226v47.946l10.109,13.021h-10.109v41.601c20.997-8.622,38.742-17.465,52.661-25.737v-76.83
		c0-7.432-6.025-13.457-13.457-13.457h-25.748C296.736,101.77,290.712,107.794,290.712,115.226z"/>
	<path fill="#2DCCD3" d="M381.047,167.795c-11.2,18.786-60.367,46.504-122.747,67.708c-74.844,25.44-140.343,31.863-146.297,14.346
		c-2.848-8.377,8.453-20.715,29.196-34.09v-14.786c-41.234,22.124-65.934,44.929-60.926,59.662
		c7.724,22.725,83.164,17.632,168.5-11.374c69.97-23.783,124.854-56.256,138.096-79.707"/>
	<g>
		<path fill-rule="evenodd" clip-rule="evenodd" fill="#2DCCD3" d="M269.816,155.94c1.209,0.709,1.195,1.419,0,2.129
			C269.816,157.359,269.816,156.65,269.816,155.94z"/>
		<path fill-rule="evenodd" clip-rule="evenodd" fill="#2DCCD3" d="M384.15,286.047c-1.182-0.699-1.172-1.4,0-2.102
			C384.15,284.646,384.15,285.347,384.15,286.047z"/>
		<path fill-rule="evenodd" clip-rule="evenodd" fill="#2DCCD3" d="M300.285,302.926c-1.283-0.572-1.322-1.232-0.141-1.979
			C300.191,301.606,300.238,302.266,300.285,302.926z"/>
		<path fill-rule="evenodd" clip-rule="evenodd" fill="#2DCCD3" d="M270.156,153.032c0.092,0.239,0.211,0.474,0.255,0.721
			c0.01,0.055-0.245,0.158-0.378,0.238C270.074,153.671,270.115,153.352,270.156,153.032z"/>
		<path fill-rule="evenodd" clip-rule="evenodd" fill="#2DCCD3" d="M270.758,267.066c0.619,0.229,1.013,0.492,0.156,0.959
			C270.742,267.727,270.69,267.406,270.758,267.066z"/>
		<path fill-rule="evenodd" clip-rule="evenodd" fill="#2DCCD3" d="M300.156,269.044c-0.765-0.374-0.727-0.703,0.055-0.991
			C300.192,268.383,300.174,268.713,300.156,269.044z"/>
		<path fill-rule="evenodd" clip-rule="evenodd" fill="#2DCCD3" d="M270.868,300.964c0.82,0.425,0.601,0.728-0.113,0.975
			C270.793,301.613,270.83,301.289,270.868,300.964z"/>
	</g>
	<g>
		<path fill-rule="evenodd" clip-rule="evenodd" fill="#2DCCD3" d="M374.117,164.279c-0.047-0.065-0.096-0.13-0.143-0.195
			c0.055-0.527,0.321-0.94,0.694-1.298c0.442-0.428,0.979-0.656,1.577-0.772c2.454-0.475,4.905-0.956,7.357-1.435
			c0.163-0.033,0.325-0.071,0.509-0.111c-0.06-0.08-0.09-0.131-0.129-0.174c-1.155-1.32-2.31-2.643-3.473-3.957
			c-0.145-0.165-0.153-0.268,0.007-0.421c0.298-0.287,0.583-0.587,0.862-0.891c0.169-0.184,0.363-0.317,0.604-0.383
			c0.738-0.202,1.491-0.263,2.244-0.123c2.33,0.433,4.657,0.877,6.983,1.326c0.233,0.045,0.383,0.007,0.551-0.175
			c1.345-1.461,2.703-2.908,4.057-4.362c0.631-0.677,1.261-1.357,1.915-2.063c-0.134-0.028-0.23-0.051-0.327-0.067
			c-1.742-0.285-3.484-0.569-5.226-0.854c-0.179-0.029-0.355-0.053-0.54-0.04c-3.348,0.248-6.695,0.491-10.042,0.734
			c-4.182,0.305-8.363,0.607-12.544,0.919c-0.256,0.02-0.294-0.036-0.219-0.271c0.178-0.558,0.331-1.122,0.496-1.683
			c0.083-0.286,0.221-0.538,0.453-0.731c0.35-0.185,0.587-0.502,0.896-0.737l0.023-0.018l0.029,0.005
			c0.079,0.061,0.137,0.031,0.183-0.044c0.104-0.036,0.205-0.077,0.312-0.106c3.22-0.87,6.439-1.739,9.659-2.609
			c9.903-2.674,19.804-5.348,29.706-8.02c0.182-0.049,0.325-0.13,0.456-0.27c2.361-2.539,4.723-5.079,7.097-7.607
			c0.733-0.78,1.419-1.585,1.974-2.511c0.554-0.928,1.243-1.764,2.095-2.445c1.045-0.837,2.13-1.598,3.524-1.749
			c0.716-0.076,1.395-0.31,2.065-0.562c0.698-0.263,1.384-0.563,2.12-0.709c0.614-0.122,1.223-0.151,1.754,0.278
			c0.19,0.288,0.431,0.536,0.661,0.792c0.016,0.037,0.032,0.073,0.049,0.11c-0.047,0.058-0.069,0.109,0.036,0.124
			c0.117,0.231,0.127,0.484,0.134,0.734c0.015,0.511-0.09,1.003-0.235,1.488c-0.396,1.326-1.058,2.524-1.786,3.689
			c-1.494,2.391-3.261,4.576-5.099,6.707c-1.886,2.183-3.848,4.295-5.938,6.283c-0.252,0.24-0.316,0.441-0.247,0.777
			c1.137,5.443,2.257,10.889,3.386,16.333c0.223,1.074-0.147,1.894-1.021,2.516c-0.103-0.024-0.149,0.016-0.138,0.122
			c-0.103,0.129-0.223,0.237-0.366,0.317c-0.133,0.008-0.238,0.043-0.223,0.208c-0.058,0.057-0.114,0.113-0.172,0.169
			c-0.254,0.02-0.382,0.213-0.527,0.383c-0.077-0.093-0.158-0.182-0.229-0.279c-1.977-2.689-3.955-5.378-5.931-8.069
			c-0.106-0.145-0.211-0.244-0.409-0.261c-1.826-0.162-3.654-0.333-5.48-0.506c-0.173-0.016-0.302,0.023-0.435,0.143
			c-0.904,0.806-1.794,1.627-2.729,2.394c-3.757,3.078-7.682,5.923-11.787,8.517c-0.205,0.129-0.244,0.233-0.148,0.453
			c0.412,0.931,0.801,1.872,1.206,2.805c0.077,0.177,0.11,0.349,0.036,0.526c-0.211,0.511-0.56,0.902-1.053,1.16
			c-0.178,0.093-0.348,0.057-0.527,0.003c-1.736-0.526-3.475-1.044-5.21-1.576c-0.223-0.068-0.392-0.046-0.585,0.087
			c-0.508,0.353-1.046,0.646-1.661,0.773c-0.181,0.037-0.377,0.062-0.508-0.098c-0.293-0.356-0.484-0.757-0.319-1.228
			c0.076-0.213,0.015-0.253-0.183-0.273c-0.722-0.075-1.442-0.165-2.163-0.25C379.424,164.907,376.771,164.592,374.117,164.279z"/>
		<path fill-rule="evenodd" clip-rule="evenodd" fill="#2DCCD3" d="M369.786,147.251c0.051-0.079,0.085-0.16,0.039-0.254
			c0.261-0.191,0.52-0.382,0.781-0.574c0.087-0.022,0.064,0.049,0.076,0.09C370.373,146.749,370.136,147.067,369.786,147.251z"/>
		<path fill-rule="evenodd" clip-rule="evenodd" fill="#2DCCD3" d="M421.114,160.142c-0.042,0.105-0.129,0.161-0.223,0.208
			C420.876,160.185,420.981,160.15,421.114,160.142z"/>
		<path fill-rule="evenodd" clip-rule="evenodd" fill="#2DCCD3" d="M421.618,159.702c-0.022,0.065-0.069,0.106-0.138,0.122
			C421.469,159.718,421.516,159.678,421.618,159.702z"/>
		<path fill-rule="evenodd" clip-rule="evenodd" fill="#2DCCD3" d="M370.735,146.501c0.052-0.049,0.114-0.063,0.183-0.044
			C370.872,146.532,370.814,146.562,370.735,146.501z"/>
		<path fill-rule="evenodd" clip-rule="evenodd" fill="#2DCCD3" d="M432.39,121.051c0.039,0.033,0.059,0.072,0.036,0.124
			C432.32,121.16,432.343,121.109,432.39,121.051z"/>
	</g>
	<g>
		<path fill="#2DCCD3" d="M157.797,330.029h9.119l10.657,64.453h-7.141l-1.831-12.305h-11.682l-1.685,12.305h-7.214L157.797,330.029
			z M157.761,376.025h9.888l-5.09-34.057h-0.11L157.761,376.025z"/>
		<path fill="#2DCCD3" d="M185.483,327.613h7.544v6.885h-7.544V327.613z M185.483,339.551h7.507v54.932h-7.507V339.551z"/>
		<path fill="#2DCCD3" d="M220.676,338.893c0.097,0,0.146,1.586,0.146,4.76l-0.037,1.611c-4.395,0-7.544,1.527-9.448,4.578v44.641
			h-7.544v-54.932h7.544v6.115c0.635-2.146,1.751-3.813,3.351-4.998C216.287,339.484,218.283,338.893,220.676,338.893z"/>
		<path fill="#2DCCD3" d="M227.487,330.029h12.122c4.931,0,8.325,1.52,10.181,4.561c1.855,3.039,2.783,7.354,2.783,12.945
			l0.037,28.307c0,6.617-1.014,11.379-3.04,14.283c-2.027,2.906-5.433,4.357-10.217,4.357h-11.865V330.029z M245.029,347.352
			c0-4.029-0.476-6.922-1.428-8.68s-2.515-2.637-4.688-2.637h-3.882v52.332h3.882c1.465,0,2.612-0.293,3.442-0.879
			c1.782-1.27,2.673-4.762,2.673-10.475V347.352z"/>
		<path fill="#2DCCD3" d="M262.314,355.445c0-6.641,1.037-11.061,3.112-13.258s5.029-3.295,8.862-3.295
			c3.832,0,6.61,0.928,8.331,2.783c1.722,1.855,2.777,4.834,3.168,8.936c0.171,1.758,0.257,3.918,0.257,6.48v37.391H278.5v-4.76
			c-0.391,1.318-1.244,2.521-2.563,3.607s-2.955,1.629-4.908,1.629c-6.225,0-9.362-4.857-9.411-14.576v-5.346
			c0-3.15,0.86-5.842,2.582-8.074c1.721-2.234,6.476-4.779,14.264-7.637v-4.248c0-4.711-0.343-7.543-1.025-8.496
			c-0.684-0.951-1.85-1.428-3.497-1.428c-1.648,0-2.753,0.721-3.314,2.16c-0.563,1.441-0.842,4.041-0.842,7.801v1.904h-7.471
			V355.445z M278.464,364.197c-3.076,1.391-5.127,2.467-6.152,3.223c-1.025,0.758-1.801,1.643-2.325,2.654
			c-0.525,1.014-0.787,2.68-0.787,5v5.09c0,3.199,0.279,5.451,0.842,6.756c0.562,1.307,1.525,1.959,2.893,1.959
			s2.539-0.396,3.516-1.189s1.648-1.654,2.015-2.582V364.197z"/>
		<path fill="#2DCCD3" d="M297.617,330.029h7.507v9.961h5.933v5.566h-5.933v40.1c0,1.418,0.329,2.303,0.989,2.656
			c0.658,0.354,2.33,0.531,5.017,0.531v5.969h-5.163c-3.467,0-5.727-0.629-6.775-1.887c-1.05-1.256-1.574-3.461-1.574-6.609v-40.76
			H292.6v-5.566h5.018V330.029z"/>
		<path fill="#2DCCD3" d="M318.637,355.445c0-6.641,1.038-11.061,3.113-13.258c2.074-2.197,5.029-3.295,8.862-3.295
			s6.61,0.928,8.331,2.783c1.722,1.855,2.777,4.834,3.168,8.936c0.17,1.758,0.256,3.918,0.256,6.48v37.391h-7.543v-4.76
			c-0.391,1.318-1.246,2.521-2.564,3.607s-2.953,1.629-4.906,1.629c-6.227,0-9.363-4.857-9.412-14.576v-5.346
			c0-3.15,0.86-5.842,2.582-8.074c1.721-2.234,6.476-4.779,14.264-7.637v-4.248c0-4.711-0.342-7.543-1.025-8.496
			c-0.684-0.951-1.85-1.428-3.497-1.428c-1.648,0-2.753,0.721-3.314,2.16c-0.562,1.441-0.843,4.041-0.843,7.801v1.904h-7.471
			V355.445z M334.787,364.197c-3.076,1.391-5.127,2.467-6.152,3.223c-1.025,0.758-1.801,1.643-2.325,2.654
			c-0.525,1.014-0.788,2.68-0.788,5v5.09c0,3.199,0.281,5.451,0.843,6.756c0.562,1.307,1.525,1.959,2.894,1.959
			c1.367,0,2.539-0.396,3.516-1.189c0.976-0.793,1.647-1.654,2.014-2.582V364.197z"/>
	</g>
</g>
</svg>
